HIERARCHY
ROOT hip
{
  OFFSET 0 0 0
  CHANNELS 6 Xposition Yposition Zposition Zrotation Yrotation Xrotation
  JOINT abdomen
  {
    OFFSET 0 20.6881 -0.73152
    CHANNELS 3 Zrotation Xrotation Yrotation
    JOINT chest
    {
      OFFSET 0 11.7043 -0.48768
      CHANNELS 3 Zrotation Xrotation Yrotation
      JOINT neck
      {
        OFFSET 0 22.1894 -2.19456
        CHANNELS 3 Zrotation Xrotation Yrotation
        JOINT head
        {
          OFFSET -0.24384 7.07133 1.2192
          CHANNELS 3 Zrotation Xrotation Yrotation
          JOINT leftEye
          {
            OFFSET 4.14528 8.04674 8.04672
            CHANNELS 3 Zrotation Xrotation Yrotation
            End Site
            {
              OFFSET 1 0 0
            }
          }
          JOINT rightEye
          {
            OFFSET -3.6576 8.04674 8.04672
            CHANNELS 3 Zrotation Xrotation Yrotation
            End Site
            {
              OFFSET 1 0 0
            }
          }
        }
      }
      JOINT rCollar
      {
        OFFSET -2.68224 19.2634 -4.8768
        CHANNELS 3 Zrotation Xrotation Yrotation
        JOINT rShldr
        {
          OFFSET -8.77824 -1.95073 1.46304
          CHANNELS 3 Zrotation Xrotation Yrotation
          JOINT rForeArm
          {
            OFFSET -28.1742 -1.7115 0.48768
            CHANNELS 3 Zrotation Xrotation Yrotation
            JOINT rHand
            {
              OFFSET -22.5879 0.773209 7.07136
              CHANNELS 3 Zrotation Xrotation Yrotation
              JOINT rThumb1
              {
                OFFSET -1.2192 -0.487915 3.41376
                CHANNELS 3 Zrotation Xrotation Yrotation
                JOINT rThumb2
                {
                  OFFSET -3.37035 -0.52449 3.41376
                  CHANNELS 3 Zrotation Xrotation Yrotation
                  End Site
                  {
                    OFFSET -1.78271 -1.18214 1.43049
                  }
                }
              }
              JOINT rIndex1
              {
                OFFSET -7.75947 0.938293 5.60832
                CHANNELS 3 Zrotation Xrotation Yrotation
                JOINT rIndex2
                {
                  OFFSET -2.54057 -0.884171 1.56538
                  CHANNELS 3 Zrotation Xrotation Yrotation
                  End Site
                  {
                    OFFSET -1.62519 -0.234802 1.16502
                  }
                }
              }
              JOINT rMid1
              {
                OFFSET -8.24714 1.18213 3.41376
                CHANNELS 3 Zrotation Xrotation Yrotation
                JOINT rMid2
                {
                  OFFSET -3.10165 -0.590103 1.0647
                  CHANNELS 3 Zrotation Xrotation Yrotation
                  End Site
                  {
                    OFFSET -2.48547 -0.328903 0.83742
                  }
                }
              }
              JOINT rRing1
              {
                OFFSET -8.82822 0.546677 1.51678
                CHANNELS 3 Zrotation Xrotation Yrotation
                JOINT rRing2
                {
                  OFFSET -2.60934 -0.819778 -0.0198488
                  CHANNELS 3 Zrotation Xrotation Yrotation
                  End Site
                  {
                    OFFSET -2.33842 -0.294052 0.168128
                  }
                }
              }
              JOINT rPinky1
              {
                OFFSET -8.27202 -0.0477905 -0.4584
                CHANNELS 3 Zrotation Xrotation Yrotation
                JOINT rPinky2
                {
                  OFFSET -1.82734 -0.647385 -0.700984
                  CHANNELS 3 Zrotation Xrotation Yrotation
                  End Site
                  {
                    OFFSET -1.69225 -0.51767 -0.607171
                  }
                }
              }
            }
          }
        }
      }
      JOINT lCollar
      {
        OFFSET 2.68224 19.2634 -4.8768
        CHANNELS 3 Zrotation Xrotation Yrotation
        JOINT lShldr
        {
          OFFSET 8.77824 -1.95073 1.46304
          CHANNELS 3 Zrotation Xrotation Yrotation
          JOINT lForeArm
          {
            OFFSET 28.1742 -1.7115 0.48768
            CHANNELS 3 Zrotation Xrotation Yrotation
            JOINT lHand
            {
              OFFSET 22.5879 0.773209 7.07136
              CHANNELS 3 Zrotation Xrotation Yrotation
              JOINT lThumb1
              {
                OFFSET 1.2192 -0.487915 3.41376
                CHANNELS 3 Zrotation Xrotation Yrotation
                JOINT lThumb2
                {
                  OFFSET 3.37035 -0.52449 3.41376
                  CHANNELS 3 Zrotation Xrotation Yrotation
                  End Site
                  {
                    OFFSET 1.78271 -1.18214 1.43049
                  }
                }
              }
              JOINT lIndex1
              {
                OFFSET 7.75947 0.938293 5.60832
                CHANNELS 3 Zrotation Xrotation Yrotation
                JOINT lIndex2
                {
                  OFFSET 2.54057 -0.884171 1.56538
                  CHANNELS 3 Zrotation Xrotation Yrotation
                  End Site
                  {
                    OFFSET 1.62519 -0.234802 1.16502
                  }
                }
              }
              JOINT lMid1
              {
                OFFSET 8.24714 1.18213 3.41376
                CHANNELS 3 Zrotation Xrotation Yrotation
                JOINT lMid2
                {
                  OFFSET 3.10165 -0.590103 1.0647
                  CHANNELS 3 Zrotation Xrotation Yrotation
                  End Site
                  {
                    OFFSET 2.48547 -0.328903 0.83742
                  }
                }
              }
              JOINT lRing1
              {
                OFFSET 8.82822 0.546677 1.51678
                CHANNELS 3 Zrotation Xrotation Yrotation
                JOINT lRing2
                {
                  OFFSET 2.60934 -0.819778 -0.0198488
                  CHANNELS 3 Zrotation Xrotation Yrotation
                  End Site
                  {
                    OFFSET 2.33842 -0.294052 0.168128
                  }
                }
              }
              JOINT lPinky1
              {
                OFFSET 8.27202 -0.0477905 -0.4584
                CHANNELS 3 Zrotation Xrotation Yrotation
                JOINT lPinky2
                {
                  OFFSET 1.82734 -0.647385 -0.700984
                  CHANNELS 3 Zrotation Xrotation Yrotation
                  End Site
                  {
                    OFFSET 1.69225 -0.51767 -0.607171
                  }
                }
              }
            }
          }
        }
      }
    }
  }
  JOINT rButtock
  {
    OFFSET -8.77824 4.35084 1.2192
    CHANNELS 3 Zrotation Xrotation Yrotation
    JOINT rThigh
    {
      OFFSET 0 -1.70687 -2.19456
      CHANNELS 3 Zrotation Xrotation Yrotation
      JOINT rShin
      {
        OFFSET 0 -36.8199 0.73152
        CHANNELS 3 Zrotation Xrotation Yrotation
        JOINT rFoot
        {
          OFFSET 0.73152 -45.1104 -5.12064
          CHANNELS 3 Zrotation Xrotation Yrotation
          End Site
          {
            OFFSET -1.1221 -3.69964 12.103
          }
        }
      }
    }
  }
  JOINT lButtock
  {
    OFFSET 8.77824 4.35084 1.2192
    CHANNELS 3 Zrotation Xrotation Yrotation
    JOINT lThigh
    {
      OFFSET 0 -1.70687 -2.19456
      CHANNELS 3 Zrotation Xrotation Yrotation
      JOINT lShin
      {
        OFFSET 0 -36.8199 0.73152
        CHANNELS 3 Zrotation Xrotation Yrotation
        JOINT lFoot
        {
          OFFSET -0.73152 -45.1104 -5.12064
          CHANNELS 3 Zrotation Xrotation Yrotation
          End Site
          {
            OFFSET 1.1221 -3.69964 12.103
          }
        }
      }
    }
  }
}
MOTION
Frames:	4
Frame Time:	0.03333
0.011112727224826813 61.80012822151184 0.12132497504353523 -2.3945415019989014 2.3583569526672363 5.762959003448486 -2.347414493560791 13.740030288696289 3.0829737186431885 3.1581835746765137 -9.109197616577148 0.981139063835144 -5.68848991394043 14.861412048339844 -5.3412861824035645 8.588519096374512 -24.54054069519043 -7.9202561378479 -0.11003518104553223 -0.09964164346456528 0.0075377714820206165 0.13845324516296387 0.03998660668730736 -0.07942987978458405 0.03452615812420845 -0.008839196525514126 -0.055282462388277054 52.399986267089844 38.05791091918945 10.477635383605957 -28.12936782836914 -31.44065284729004 69.57735443115234 0.07071805000305176 2.099757671356201 0.10631529986858368 -0.004650596994906664 -0.051158607006073 -0.02310357242822647 0.03297607973217964 0.06750117987394333 -0.055989500135183334 0.027219343930482864 -0.069539874792099 0.06269198656082153 7.727183818817139 5.471489429473877 0.4035593271255493 -0.014625154435634613 0.008278440684080124 0.011236880905926228 2.9241788387298584 0.9836195111274719 0.16829119622707367 -0.04584793746471405 0.025489268824458122 0.012144173495471478 10.32807731628418 0.72401362657547 0.07487515360116959 0.08110779523849487 0.10165585577487946 0.010734699666500092 2.328073024749756 -0.7788674235343933 -0.1864824891090393 0.021684158593416214 -0.12086106091737747 0.0650486871600151 -58.030731201171875 38.77189254760742 -22.06009864807129 28.282621383666992 -33.916812896728516 -73.66513061523438 0.3429185450077057 -18.017414093017578 2.625340461730957 -0.017222648486495018 -0.02985803782939911 0.007368339691311121 -0.01574030891060829 -0.05950314551591873 0.06936738640069962 -0.02114437334239483 -0.07829201221466064 0.062016602605581284 -7.837863922119141 5.563117980957031 -0.42040637135505676 -0.002521062968298793 -0.0033594255801290274 0.013141120783984661 -2.8839950561523438 0.9730295538902283 -0.1407759040594101 0.028863202780485153 -0.020266881212592125 -0.011922831647098064 -10.174129486083984 0.7188804745674133 -0.0779629722237587 -0.012761726975440979 -0.08531409502029419 -0.046283576637506485 -2.1252543926239014 -0.7443501949310303 0.21841655671596527 0.030580470338463783 -0.04424847289919853 -0.04241446778178215 -28.30068016052246 -44.39240646362305 -23.663585662841797 -1.3351495265960693 66.9561767578125 1.9517954587936401 -4.92189359664917 -12.318319320678711 -13.515530586242676 0.00012515217531472445 0.04670131206512451 0.021539587527513504 34.51708984375 -44.168453216552734 27.186342239379883 1.6553107500076294 69.87383270263672 -2.281301498413086 4.363417625427246 -11.16066837310791 14.095964431762695
0.08352696895599365 62.24893927574158 0.07760962471365929 -2.179114818572998 1.0034301280975342 5.258424758911133 -2.1810524463653564 13.751843452453613 2.7573297023773193 2.977932929992676 -8.993858337402344 0.9734517335891724 -5.446447849273682 14.950972557067871 -5.366912841796875 8.011662483215332 -24.17544937133789 -8.178568840026855 -0.10751902312040329 -0.05383245646953583 0.08337926864624023 0.166377991437912 0.027243364602327347 -0.0581696592271328 0.02290605939924717 0.028641387820243835 -0.038765888661146164 53.956512451171875 37.180938720703125 8.502496719360352 -28.242908477783203 -31.369510650634766 69.61695098876953 0.19481080770492554 1.8327372074127197 -0.10734736919403076 -0.09693323820829391 -0.022485874593257904 -0.03641973435878754 0.0018114570993930101 0.05559602752327919 -0.07575298845767975 -0.02693795971572399 -0.1076572835445404 0.07238968461751938 7.721716403961182 5.416374683380127 0.43536898493766785 0.011828719638288021 -0.05653097853064537 0.04343155398964882 2.898973226547241 0.9477199912071228 0.17843754589557648 0.010217555798590183 0.028746001422405243 -0.006142055615782738 10.252129554748535 0.7797501683235168 0.0926467776298523 0.0030845103319734335 0.02611236274242401 -0.01488108467310667 2.30295729637146 -0.7695211172103882 -0.11653202772140503 0.0370391309261322 -0.017813729122281075 0.0629749670624733 -58.46076583862305 39.362701416015625 -20.80416488647461 28.207189559936523 -33.40024185180664 -73.02377319335938 0.16091452538967133 -16.371667861938477 2.469572067260742 -0.08183838427066803 -0.000596330501139164 0.026746995747089386 0.009041658602654934 -0.009746694006025791 0.020514577627182007 -0.006692809518426657 0.007358835078775883 0.05836508050560951 -7.767822265625 5.565524578094482 -0.4302976131439209 0.05870009958744049 -0.021459076553583145 0.006383910309523344 -2.896106004714966 1.059084415435791 -0.061378758400678635 0.019421782344579697 -0.0605708509683609 0.0046608601696789265 -10.27595329284668 0.6622748374938965 -0.0592292845249176 -0.0758197233080864 -0.06999171525239944 0.0003445885085966438 -2.1406664848327637 -0.7627255320549011 0.21068385243415833 0.005169327836483717 0.006535389460623264 -0.03675684332847595 -27.79013442993164 -43.566802978515625 -22.81654167175293 -1.048953652381897 66.74100494384766 1.657523274421692 -5.3837385177612305 -13.084190368652344 -13.967851638793945 0.0300604235380888 0.04545651003718376 0.019371798262000084 33.36661911010742 -43.59874725341797 26.71914291381836 1.2343847751617432 69.91651916503906 -1.7514913082122803 4.224716663360596 -10.185136795043945 14.024619102478027
0.1377556473016739 74.32934641838074 2.6957374066114426 -3.478675603866577 58.56410217285156 66.76832580566406 84.27047729492188 -33.225955963134766 82.01404571533203 6.669006824493408 -2.577714443206787 6.815664768218994 -8.59627628326416 -28.65367889404297 -9.623383522033691 101.65459442138672 62.95798873901367 -91.12057495117188 -0.053488899022340775 -0.5472793579101562 0.3203446567058563 0.13825997710227966 0.35917073488235474 0.07908052206039429 0.24148744344711304 0.19693662226200104 -0.10746698826551437 121.52289581298828 -8.410566329956055 -114.84569549560547 27.750629425048828 -56.674705505371094 -163.96548461914062 -72.9689712524414 -84.99089050292969 -66.39608764648438 -0.25766974687576294 0.2459871619939804 0.3110315799713135 0.3545628786087036 -0.2511690557003021 0.16853371262550354 0.31560400128364563 -0.1325584053993225 -0.15431731939315796 7.963211536407471 5.371482849121094 0.5185117125511169 0.29025256633758545 0.5323011875152588 0.16514351963996887 2.726919174194336 1.641059398651123 0.3788031041622162 0.21291883289813995 0.12276998162269592 -0.09593170136213303 10.088265419006348 0.040916331112384796 -0.13549138605594635 0.06442497670650482 0.015848493203520775 0.757079005241394 1.7861956357955933 -0.9279112815856934 -0.31340262293815613 -0.6366952657699585 0.2139796018600464 -0.26501426100730896 -122.35823059082031 -84.62476348876953 -104.16679382324219 -18.698877334594727 -0.8713736534118652 35.591896057128906 164.02711486816406 31.76946449279785 -175.7677001953125 0.11709189414978027 0.79622483253479 0.3520612418651581 -0.37071508169174194 -0.28907230496406555 -0.3765210807323456 -0.1542862504720688 -0.14612852036952972 -0.074710413813591 -7.515275955200195 5.337096214294434 -0.5925294160842896 0.4989020824432373 0.43833476305007935 0.534173846244812 -2.8838846683502197 0.9686837196350098 0.055152252316474915 -0.0062071410939097404 0.3981199264526367 -0.0033774124458432198 -10.723910331726074 0.9707946181297302 -0.20150266587734222 0.40258166193962097 -0.4633830189704895 0.17114931344985962 -2.2755627632141113 -0.31658491492271423 0.8835119009017944 0.007058514282107353 -0.2775738835334778 -0.21340849995613098 55.863494873046875 73.22801208496094 -93.49938201904297 1.5717233419418335 10.655749320983887 7.963252544403076 -97.1341781616211 -43.120155334472656 -116.33953857421875 -0.5472843050956726 0.18210779130458832 0.31181207299232483 52.89008712768555 64.79474639892578 61.24366760253906 -1.2336786985397339 24.36015510559082 -2.5161681175231934 92.533203125 -49.68069076538086 84.98870086669922
0.4731815308332443 87.49585747718811 5.587424710392952 -77.18829345703125 62.985469818115234 176.38731384277344 45.746849060058594 -12.826041221618652 36.836849212646484 3.98471736907959 -4.926209449768066 5.380237102508545 -10.918646812438965 -12.63645076751709 -7.572850704193115 55.19532775878906 53.218955993652344 -41.380367279052734 0.2397954761981964 -0.4417001008987427 0.8285784125328064 0.36457574367523193 0.4243513345718384 0.28196772933006287 0.08742435276508331 -0.06672950088977814 -0.1666228026151657 114.7803955078125 7.544564247131348 -78.43997192382812 -3.460409641265869 -56.51994705200195 139.4986114501953 -18.82237434387207 -76.51042175292969 -6.222757339477539 0.41651105880737305 0.9805962443351746 0.7385981678962708 0.5223417282104492 -0.730044424533844 0.34419000148773193 1.2021390199661255 -0.03343122452497482 0.1974785476922989 7.509145736694336 5.435755729675293 1.031469464302063 0.32500794529914856 0.6265702843666077 0.15250881016254425 2.9758074283599854 1.5576889514923096 0.8044286966323853 0.062183890491724014 -0.416464626789093 0.3403279483318329 10.115370750427246 0.023969000205397606 -0.6254636645317078 -0.07650741934776306 -0.5034374594688416 0.8006716966629028 1.9746333360671997 -0.6718999743461609 -0.3822944462299347 -0.8962510824203491 0.09234205633401871 -0.37379971146583557 -129.4683074951172 -69.60216522216797 -105.81248474121094 -15.167340278625488 0.05764014646410942 25.510637283325195 165.08412170410156 22.94906997680664 -177.29849243164062 0.2222285270690918 1.1322391033172607 0.5345142483711243 -0.46877214312553406 -0.16861771047115326 0.07875575125217438 0.16995462775230408 0.48534780740737915 -0.47182273864746094 -7.252721309661865 5.552873134613037 -0.895671010017395 0.8540736436843872 0.6998581290245056 0.7894448637962341 -3.401421546936035 1.4617619514465332 -0.2248193472623825 0.28360727429389954 0.6330531239509583 -0.07559819519519806 -10.535466194152832 1.1455299854278564 -0.6855431199073792 0.36236318945884705 -0.3456292748451233 0.4163861572742462 -2.4675986766815186 -0.5222868919372559 1.4706064462661743 0.1881897747516632 -0.1128166988492012 -0.24012324213981628 6.188725471496582 52.23621368408203 -35.55976867675781 -1.312105417251587 29.957130432128906 6.670307159423828 -58.02254104614258 -49.44615936279297 -72.30213165283203 -0.9655963182449341 -0.19466176629066467 0.6409080028533936 48.64566421508789 20.266456604003906 50.31291961669922 0.3193371891975403 51.41253662109375 -1.9598486423492432 18.936241149902344 -29.403301239013672 24.855493545532227
